<svg width="40" height="40" viewBox="0 0 40 40" fill="none" xmlns="http://www.w3.org/2000/svg">
<path d="M33.5 10H28V6.5H26V10H14V6.5H12V10H6.5C6.10232 10.0005 5.72106 10.1586 5.43985 10.4399C5.15865 10.7211 5.00046 11.1023 5 11.5V32.5C5.00046 32.8977 5.15865 33.2789 5.43985 33.5601C5.72106 33.8414 6.10232 33.9995 6.5 34H33.5C33.8977 33.9995 34.2789 33.8414 34.5601 33.5601C34.8414 33.2789 34.9995 32.8977 35 32.5V11.5C34.9995 11.1023 34.8414 10.7211 34.5601 10.4399C34.2789 10.1586 33.8977 10.0005 33.5 10ZM33 32H7V12H12V14.5H14V12H26V14.5H28V12H33V32Z" fill="#6C6C6C"/>
<path d="M11 18H13V20H11V18Z" fill="#6C6C6C"/>
<path d="M16.5 18H18.5V20H16.5V18Z" fill="#6C6C6C"/>
<path d="M21.5 18H23.5V20H21.5V18Z" fill="#6C6C6C"/>
<path d="M27 18H29V20H27V18Z" fill="#6C6C6C"/>
<path d="M11 22.5H13V24.5H11V22.5Z" fill="#6C6C6C"/>
<path d="M16.5 22.5H18.5V24.5H16.5V22.5Z" fill="#6C6C6C"/>
<path d="M21.5 22.5H23.5V24.5H21.5V22.5Z" fill="#6C6C6C"/>
<path d="M27 22.5H29V24.5H27V22.5Z" fill="#6C6C6C"/>
<path d="M11 27H13V29H11V27Z" fill="#6C6C6C"/>
<path d="M16.5 27H18.5V29H16.5V27Z" fill="#6C6C6C"/>
<path d="M21.5 27H23.5V29H21.5V27Z" fill="#6C6C6C"/>
<path d="M27 27H29V29H27V27Z" fill="#6C6C6C"/>
</svg>
