<svg width="40" height="40" viewBox="0 0 40 40" fill="none" xmlns="http://www.w3.org/2000/svg">
<path d="M30.8282 27.8625C30.2387 26.4662 29.3832 25.1978 28.3095 24.1281C27.2389 23.0553 25.9708 22.2 24.5751 21.6094C24.5626 21.6031 24.5501 21.6 24.5376 21.5938C26.4845 20.1875 27.7501 17.8969 27.7501 15.3125C27.7501 11.0312 24.2813 7.5625 20.0001 7.5625C15.7188 7.5625 12.2501 11.0312 12.2501 15.3125C12.2501 17.8969 13.5157 20.1875 15.4626 21.5969C15.4501 21.6031 15.4376 21.6062 15.4251 21.6125C14.0251 22.2031 12.7688 23.05 11.6907 24.1313C10.6179 25.2018 9.76259 26.4699 9.17195 27.8656C8.59171 29.232 8.27877 30.697 8.25008 32.1812C8.24924 32.2146 8.25509 32.2478 8.26728 32.2788C8.27947 32.3099 8.29776 32.3382 8.32105 32.3621C8.34435 32.386 8.3722 32.4049 8.40294 32.4179C8.43369 32.4308 8.46672 32.4375 8.50008 32.4375H10.3751C10.5126 32.4375 10.622 32.3281 10.6251 32.1938C10.6876 29.7813 11.6563 27.5219 13.3688 25.8094C15.1407 24.0375 17.4938 23.0625 20.0001 23.0625C22.5063 23.0625 24.8595 24.0375 26.6313 25.8094C28.3438 27.5219 29.3126 29.7813 29.3751 32.1938C29.3782 32.3313 29.4876 32.4375 29.6251 32.4375H31.5001C31.5334 32.4375 31.5665 32.4308 31.5972 32.4179C31.628 32.4049 31.6558 32.386 31.6791 32.3621C31.7024 32.3382 31.7207 32.3099 31.7329 32.2788C31.7451 32.2478 31.7509 32.2146 31.7501 32.1812C31.7188 30.6875 31.4095 29.2344 30.8282 27.8625ZM20.0001 20.6875C18.5657 20.6875 17.2157 20.1281 16.2001 19.1125C15.1845 18.0969 14.6251 16.7469 14.6251 15.3125C14.6251 13.8781 15.1845 12.5281 16.2001 11.5125C17.2157 10.4969 18.5657 9.9375 20.0001 9.9375C21.4345 9.9375 22.7845 10.4969 23.8001 11.5125C24.8157 12.5281 25.3751 13.8781 25.3751 15.3125C25.3751 16.7469 24.8157 18.0969 23.8001 19.1125C22.7845 20.1281 21.4345 20.6875 20.0001 20.6875Z" fill="#6C6C6C"/>
</svg>
